<svg id="Layer_1" data-name="Layer 1" xmlns="http://www.w3.org/2000/svg" xmlns:xlink="http://www.w3.org/1999/xlink" viewBox="0 0 432.12 176.8"><defs><style>.cls-1{fill:url(#radial-gradient);}.cls-2{fill:url(#linear-gradient);}.cls-3{fill:#223e96;}.cls-4{fill:url(#linear-gradient-2);}.cls-5{fill:#b1b1b1;}.cls-6{opacity:0.1;}.cls-7{fill:#4d4d4d;}.cls-8,.cls-9{fill:#fff;}.cls-8{opacity:0.35;}.cls-10{fill:url(#linear-gradient-3);}.cls-11{fill:url(#linear-gradient-4);}.cls-12{fill:url(#linear-gradient-5);}.cls-13{fill:url(#linear-gradient-6);}.cls-14{fill:url(#linear-gradient-7);}</style><radialGradient id="radial-gradient" cx="166.89" cy="3409.5" r="330.89" gradientTransform="matrix(0.63, 0, 0, 0.06, 108.48, -64.69)" gradientUnits="userSpaceOnUse"><stop offset="0.38" stop-color="gray"/><stop offset="0.47" stop-color="#898989" stop-opacity="0.93"/><stop offset="0.62" stop-color="#a3a3a3" stop-opacity="0.73"/><stop offset="0.8" stop-color="#ccc" stop-opacity="0.4"/><stop offset="1" stop-color="#fff" stop-opacity="0"/></radialGradient><linearGradient id="linear-gradient" x1="120.63" y1="-0.31" x2="122.61" y2="136.28" gradientUnits="userSpaceOnUse"><stop offset="0" stop-color="#3364ee"/><stop offset="0.53" stop-color="#2c53c7"/><stop offset="1" stop-color="#1e3b97"/></linearGradient><linearGradient id="linear-gradient-2" x1="298.68" y1="9.09" x2="303.96" y2="94.88" gradientUnits="userSpaceOnUse"><stop offset="0" stop-color="#ececec"/><stop offset="0.52" stop-color="#ddd"/><stop offset="1" stop-color="#c8c8c8"/></linearGradient><linearGradient id="linear-gradient-3" x1="240.25" y1="55.06" x2="240.73" y2="91.77" xlink:href="#linear-gradient"/><linearGradient id="linear-gradient-4" x1="273.66" y1="54.62" x2="274.14" y2="91.33" xlink:href="#linear-gradient"/><linearGradient id="linear-gradient-5" x1="301.66" y1="54.25" x2="302.14" y2="90.96" xlink:href="#linear-gradient"/><linearGradient id="linear-gradient-6" x1="334.69" y1="53.81" x2="335.17" y2="90.53" xlink:href="#linear-gradient"/><linearGradient id="linear-gradient-7" x1="362.5" y1="53.45" x2="362.98" y2="90.16" xlink:href="#linear-gradient"/></defs><title>Artboard 8</title><ellipse class="cls-1" cx="216.06" cy="142.48" rx="216.06" ry="34.32"/><path class="cls-2" d="M212.83,0H99.5a70,70,0,1,0,0,140.08H212.83Z"/><rect class="cls-3" x="209.01" width="3.8" height="140.08"/><path class="cls-4" d="M212.83,0H326.16a70,70,0,1,1,0,140.08H212.83Z"/><rect class="cls-5" x="212.83" width="3.23" height="140.08"/><g class="cls-6"><path class="cls-7" d="M396.21,70.05a70,70,0,0,1-70,70H99.5A70.06,70.06,0,0,1,32.92,48.27,70,70,0,0,0,99.5,96.53H326.16a70.06,70.06,0,0,0,66.59-48.26A69.67,69.67,0,0,1,396.21,70.05Z"/></g><path class="cls-8" d="M345.84,41.49c9.88,0,17.89-6.06,17.89-13.53s-8-13.52-17.89-13.52H80.56c-9.88,0-17.89,6-17.89,13.52s8,13.53,17.89,13.53Z"/><path class="cls-9" d="M109.12,93h-10V67.68L91.09,83.85H83L74.87,67.68V93h-10V53.44H77.19L87,74l9.84-20.57h12.26Z"/><path class="cls-9" d="M145.69,78.88c0,.79-.05,1.52-.11,2.26h-20c.45,4.24,2.48,5.65,5.88,5.65a52.83,52.83,0,0,0,6.72-.74q5-.75,5.77-1v6.61a40.88,40.88,0,0,1-11.93,1.92c-9.21,0-16.79-4-16.79-14.69,0-7.3,4.24-14.7,16.11-14.7C141,64.18,145.69,69.1,145.69,78.88Zm-20.18-3.06v.46h10.86v-.46c0-4.24-1.7-6.33-5.15-6.33C127.44,69.49,125.51,71.58,125.51,75.82Z"/><path class="cls-9" d="M180.12,93h-8.71L171,89.84a14.87,14.87,0,0,1-9.16,3.73c-9.16,0-12.61-7.35-12.61-14.58,0-7.8,3.11-14.81,12-14.81a16.2,16.2,0,0,1,8.65,2.6V53.44h10.18ZM159.43,78.93c0,5.2,1.69,7.86,5.71,7.86a5.94,5.94,0,0,0,4.8-2.43V72.6a8.79,8.79,0,0,0-4.8-1.64C161.35,71,159.43,73.62,159.43,78.93Z"/><path class="cls-9" d="M196.9,61.41H186.33V53.84H196.9Zm-.16,3.33L196.68,93H186.5l.06-28.27Z"/><path class="cls-10" d="M223.61,53.44H244.3a14.1,14.1,0,0,1,9.56,3.33c2.43,2.15,3.67,5.37,3.67,9.67,0,9.21-6.28,12.94-13.91,12.94H234V93h-10.4ZM234,71.92h7.69c3.34,0,5.54-1.69,5.54-5.48s-2.2-5.6-5.54-5.54H234Z"/><path class="cls-11" d="M285,64.52,284.94,72a17.19,17.19,0,0,0-3.33-.34,15.31,15.31,0,0,0-8.42,2.77V93H263V64.74h10.23V68c3.11-2.54,6.21-3.78,9.38-3.78A12.33,12.33,0,0,1,285,64.52Z"/><path class="cls-12" d="M317,74.13V93H306.76V89.84a18.59,18.59,0,0,1-10.29,3.62c-5.48,0-9.49-3.28-9.49-9,0-6,5.54-9,10.4-9h9.38V74.13c0-2.55-1.86-3.85-5.65-3.85a53.21,53.21,0,0,0-11.76,2V66a53.61,53.61,0,0,1,13.17-1.81C310.21,64.18,317,66.55,317,74.13Zm-10.23,6.1H301c-2.55,0-4.58,1.19-4.58,3.62s1.64,3.62,3.9,3.62a11.32,11.32,0,0,0,6.44-2.21Z"/><path class="cls-13" d="M348.25,66.44v6.78a37.93,37.93,0,0,0-6.05-1.52,29.46,29.46,0,0,0-4.41-.45c-4.07,0-5.93,1.92-5.93,7.63s1.81,7.63,5.93,7.63a29.69,29.69,0,0,0,4.41-.46,37.93,37.93,0,0,0,6.05-1.52v6.78a27.76,27.76,0,0,1-10.51,2.26c-8.54,0-16.11-4.52-16.11-14.69s7.57-14.7,16-14.7A26,26,0,0,1,348.25,66.44Z"/><path class="cls-14" d="M366.28,58l0,6.72h8.25v6.79h-8.25v12c0,2.88,1.63,4.3,4.91,4.3a22.19,22.19,0,0,0,3.34-.34v5.31a34.7,34.7,0,0,1-6.73.79C361.48,93.57,356,91,356,83.51l.06-12h-5.14V64.74h5.14V58Z"/></svg>