<svg id="Layer_1" data-name="Layer 1" xmlns="http://www.w3.org/2000/svg" xmlns:xlink="http://www.w3.org/1999/xlink" viewBox="0 0 192.12 181.45"><defs><style>.cls-1{fill:url(#radial-gradient);}.cls-2{fill:url(#linear-gradient);}.cls-3{fill:url(#linear-gradient-2);}.cls-4{fill:#223e96;}.cls-5{fill:url(#linear-gradient-3);}.cls-6{fill:#b1b1b1;}.cls-7{opacity:0.1;}.cls-8{fill:#4d4d4d;}.cls-9{fill:#fff;}.cls-10{fill:url(#linear-gradient-4);}</style><radialGradient id="radial-gradient" cx="1487.11" cy="3089.81" r="259.43" gradientTransform="matrix(0.36, 0, 0, 0.07, -437.62, -55.52)" gradientUnits="userSpaceOnUse"><stop offset="0.33" stop-color="#4d4d4d"/><stop offset="0.88" stop-color="#fff" stop-opacity="0"/></radialGradient><linearGradient id="linear-gradient" x1="-2028.5" y1="34.88" x2="-2004.97" y2="156.64" gradientTransform="matrix(-1, 0, 0, 1, -1887.63, 0)" gradientUnits="userSpaceOnUse"><stop offset="0" stop-color="#bdbdbd"/><stop offset="0.52" stop-color="#bdbdbd"/><stop offset="1" stop-color="#4d4d4d"/></linearGradient><linearGradient id="linear-gradient-2" x1="50.77" y1="0.52" x2="52.9" y2="147.19" gradientUnits="userSpaceOnUse"><stop offset="0" stop-color="#3364ee"/><stop offset="0.53" stop-color="#2c53c7"/><stop offset="1" stop-color="#1e3b97"/></linearGradient><linearGradient id="linear-gradient-3" x1="-2020.22" y1="22.58" x2="-2012.84" y2="133.28" gradientTransform="matrix(-1, 0, 0, 1, -1887.63, 0)" gradientUnits="userSpaceOnUse"><stop offset="0" stop-color="#ececec"/><stop offset="0.52" stop-color="#ddd"/><stop offset="1" stop-color="#c8c8c8"/></linearGradient><linearGradient id="linear-gradient-4" x1="127.06" y1="56.28" x2="127.58" y2="96.15" xlink:href="#linear-gradient-2"/></defs><title>Artboard 10</title><ellipse class="cls-1" cx="96.06" cy="152.12" rx="96.06" ry="29.33"/><path class="cls-2" d="M95.53,0h12a76.06,76.06,0,1,1,0,152.12h-4.16Z"/><path class="cls-3" d="M91.42,0H87.27a76.06,76.06,0,0,0,0,152.12h4.15Z"/><rect class="cls-4" x="87.27" width="4.13" height="152.12"/><path class="cls-5" d="M91.37,0h4.16a76.06,76.06,0,0,1,0,152.12H91.37Z"/><rect class="cls-6" x="91.4" width="4.13" height="152.12"/><g class="cls-7"><path class="cls-8" d="M171.59,76.73c0,42-33.57,76-75,76H86.19c-41.42,0-75-34-75-76a76.41,76.41,0,0,1,3.7-23.61c9.8,30.38,38,52.34,71.28,52.34H96.61c33.27,0,61.48-22,71.27-52.34A76.42,76.42,0,0,1,171.59,76.73Z"/></g><path class="cls-9" d="M76.94,97.54H66.13V70L59.92,87.6H51.08L43.58,70v27.5H32.78v-43h14.6L55.5,76.92l8.12-22.34H76.94Z"/><path class="cls-10" d="M105.59,54.58h29.28c4.23.06,7.73,1.22,10.37,3.62s4,5.83,4,10.49c0,10-6.81,14.06-15.1,14.06H116.89V97.54h-11.3Zm11.3,20.07H132c3.62,0,6-1.84,6-6s-2.4-6.07-6-6H116.89Z"/></svg>